# xmcd
#
# Track frame offsets: 
#        150
#        25387
#        47757
#        72064
#        92362
#        116511
#        153582
#        175682
#        195459
#        206565
#        229895
#
# Disc length: 3602 seconds
#
# Revision: 0
# Processed by: cddbd v1.5.2PL0 Copyright (c) Steve Scherf et al.
# Submitted via: ExactAudioCopy v0.99pb5
#
DISCID=890e100b
DTITLE=ELVENKING - The Scythe
DYEAR=2007
DGENRE=Heavy Metal
TTITLE0=The Scythe
TTITLE1=Lost Hill Of Memories
TTITLE2=Infection
TTITLE3=Poison Tears
TTITLE4=A Riddle Of Stars
TTITLE5=Romance And Wrath
TTITLE6=The Divided Heart
TTITLE7=Horns Ablaze
TTITLE8=Totentanz
TTITLE9=Death And The Suffering
TTITLE10=Dominhate
EXTD=
EXTT0=
EXTT1=
EXTT2=
EXTT3=
EXTT4=
EXTT5=
EXTT6=
EXTT7=
EXTT8=
EXTT9=
EXTT10=
PLAYORDER=
